<?xml version="1.0" standalone="no"?><!DOCTYPE svg PUBLIC "-//W3C//DTD SVG 1.1//EN" "http://www.w3.org/Graphics/SVG/1.1/DTD/svg11.dtd"><svg t="1763394568710" class="icon" viewBox="0 0 1024 1024" version="1.1" xmlns="http://www.w3.org/2000/svg" p-id="5311" xmlns:xlink="http://www.w3.org/1999/xlink" width="200" height="200"><path d="M10.882328 197.609084c0-60.033425 48.586661-108.699107 108.710396-108.699107l782.872892 0c60.044714 0 108.710396 48.643104 108.710396 108.699107l0 630.678338c0 60.033425-48.586661 108.699107-108.710396 108.699107l-782.872892 0c-60.044714 0-108.710396-48.643104-108.710396-108.699107L10.882328 197.609084zM54.377775 197.609084 54.377775 197.609084l0 630.678338c0 36.033602 29.192636 65.214949 65.226237 65.214949l782.872892 0c36.078756 0 65.226237-29.15877 65.226237-65.214949L967.703142 197.609084c0-36.033602-29.192636-65.214949-65.226237-65.214949l-782.872892 0C83.525256 132.394135 54.377775 161.552905 54.377775 197.609084z" p-id="5312"></path><path d="M54.377775 284.611267l913.314078 0 0 43.495447-913.314078 0 0-43.495447Z" p-id="5313"></path><path d="M619.762143 632.552265c0-36.033602 29.170058-65.248815 65.169794-65.248815l130.599228 0c35.999735 0 65.169794 29.328101 65.169794 65.248815l0 86.968317c0 36.033602-29.170058 65.248815-65.169794 65.248815L684.943226 784.769397c-35.999735 0-65.169794-29.328101-65.169794-65.248815L619.773432 632.552265zM663.25759 632.552265 663.25759 632.552265l0 86.968317c0 11.954757 9.776034 21.753368 21.685636 21.753368l130.599228 0c11.966046 0 21.685636-9.730879 21.685636-21.753368l0-86.968317c0-11.954757-9.776034-21.753368-21.685636-21.753368L684.943226 610.798898C672.97718 610.798898 663.25759 620.529776 663.25759 632.552265z" p-id="5314"></path><path d="M54.377775 415.086319l913.314078 0 0 43.495447-913.314078 0 0-43.495447Z" p-id="5315"></path></svg>